<mxfile host="app.diagrams.net" modified="2021-02-17T00:02:01.089Z" agent="5.0 (Windows)" etag="6BdPJoVAjRcKzPVsnvKd" version="14.2.9" type="github">
  <diagram id="LCWy3e4MiBGaapUozP6q" name="Page-1">
    <mxGraphModel dx="1422" dy="763" grid="1" gridSize="10" guides="1" tooltips="1" connect="1" arrows="1" fold="1" page="1" pageScale="1" pageWidth="850" pageHeight="1100" math="0" shadow="0">
      <root>
        <mxCell id="0" />
        <mxCell id="1" parent="0" />
        <mxCell id="OYP0z0L1LHqat2L6b4ga-1" value="Start State" style="rounded=0;whiteSpace=wrap;html=1;" vertex="1" parent="1">
          <mxGeometry x="330" y="70" width="120" height="60" as="geometry" />
        </mxCell>
        <mxCell id="OYP0z0L1LHqat2L6b4ga-2" value="Is Pi Registered?" style="rounded=0;whiteSpace=wrap;html=1;" vertex="1" parent="1">
          <mxGeometry x="330" y="210" width="120" height="60" as="geometry" />
        </mxCell>
        <mxCell id="OYP0z0L1LHqat2L6b4ga-3" value="Has Pi State Change Been Missed" style="rounded=0;whiteSpace=wrap;html=1;" vertex="1" parent="1">
          <mxGeometry x="330" y="360" width="120" height="60" as="geometry" />
        </mxCell>
        <mxCell id="OYP0z0L1LHqat2L6b4ga-4" value="&lt;div&gt;Register Pi&lt;/div&gt;" style="rounded=0;whiteSpace=wrap;html=1;" vertex="1" parent="1">
          <mxGeometry x="500" y="290" width="120" height="60" as="geometry" />
        </mxCell>
        <mxCell id="OYP0z0L1LHqat2L6b4ga-5" value="Update to Appropriate State" style="rounded=0;whiteSpace=wrap;html=1;" vertex="1" parent="1">
          <mxGeometry x="500" y="450" width="120" height="60" as="geometry" />
        </mxCell>
        <mxCell id="OYP0z0L1LHqat2L6b4ga-6" value="Store Current State" style="rounded=0;whiteSpace=wrap;html=1;" vertex="1" parent="1">
          <mxGeometry x="330" y="520" width="120" height="60" as="geometry" />
        </mxCell>
        <mxCell id="OYP0z0L1LHqat2L6b4ga-7" value="Idle Mode (Wait for Event)" style="rounded=0;whiteSpace=wrap;html=1;" vertex="1" parent="1">
          <mxGeometry x="330" y="650" width="120" height="60" as="geometry" />
        </mxCell>
        <mxCell id="OYP0z0L1LHqat2L6b4ga-8" value="Scheduled Event Occurs" style="rounded=0;whiteSpace=wrap;html=1;" vertex="1" parent="1">
          <mxGeometry x="500" y="790" width="120" height="60" as="geometry" />
        </mxCell>
        <mxCell id="OYP0z0L1LHqat2L6b4ga-9" value="Attempt To Reconnect" style="rounded=0;whiteSpace=wrap;html=1;" vertex="1" parent="1">
          <mxGeometry x="50" y="600" width="120" height="60" as="geometry" />
        </mxCell>
        <mxCell id="OYP0z0L1LHqat2L6b4ga-10" value="User Sets State" style="rounded=0;whiteSpace=wrap;html=1;" vertex="1" parent="1">
          <mxGeometry x="330" y="790" width="120" height="60" as="geometry" />
        </mxCell>
        <mxCell id="OYP0z0L1LHqat2L6b4ga-12" value="Pi Connects" style="endArrow=classic;html=1;entryX=0.5;entryY=0;entryDx=0;entryDy=0;exitX=0.5;exitY=1;exitDx=0;exitDy=0;" edge="1" parent="1" source="OYP0z0L1LHqat2L6b4ga-1" target="OYP0z0L1LHqat2L6b4ga-2">
          <mxGeometry width="50" height="50" relative="1" as="geometry">
            <mxPoint x="400" y="390" as="sourcePoint" />
            <mxPoint x="450" y="340" as="targetPoint" />
          </mxGeometry>
        </mxCell>
        <mxCell id="OYP0z0L1LHqat2L6b4ga-14" value="No" style="endArrow=classic;html=1;exitX=0.75;exitY=1;exitDx=0;exitDy=0;entryX=0;entryY=0.5;entryDx=0;entryDy=0;" edge="1" parent="1" source="OYP0z0L1LHqat2L6b4ga-2" target="OYP0z0L1LHqat2L6b4ga-4">
          <mxGeometry width="50" height="50" relative="1" as="geometry">
            <mxPoint x="400" y="390" as="sourcePoint" />
            <mxPoint x="450" y="340" as="targetPoint" />
          </mxGeometry>
        </mxCell>
        <mxCell id="OYP0z0L1LHqat2L6b4ga-15" value="Yes" style="endArrow=classic;html=1;exitX=0.5;exitY=1;exitDx=0;exitDy=0;entryX=0.5;entryY=0;entryDx=0;entryDy=0;" edge="1" parent="1" source="OYP0z0L1LHqat2L6b4ga-2" target="OYP0z0L1LHqat2L6b4ga-3">
          <mxGeometry width="50" height="50" relative="1" as="geometry">
            <mxPoint x="400" y="390" as="sourcePoint" />
            <mxPoint x="450" y="340" as="targetPoint" />
          </mxGeometry>
        </mxCell>
        <mxCell id="OYP0z0L1LHqat2L6b4ga-16" value="" style="endArrow=classic;html=1;exitX=0.5;exitY=1;exitDx=0;exitDy=0;entryX=1;entryY=0.5;entryDx=0;entryDy=0;" edge="1" parent="1" source="OYP0z0L1LHqat2L6b4ga-4" target="OYP0z0L1LHqat2L6b4ga-3">
          <mxGeometry width="50" height="50" relative="1" as="geometry">
            <mxPoint x="400" y="420" as="sourcePoint" />
            <mxPoint x="450" y="370" as="targetPoint" />
          </mxGeometry>
        </mxCell>
        <mxCell id="OYP0z0L1LHqat2L6b4ga-17" value="&lt;div&gt;No&lt;/div&gt;" style="endArrow=classic;html=1;entryX=0.5;entryY=0;entryDx=0;entryDy=0;exitX=0.5;exitY=1;exitDx=0;exitDy=0;" edge="1" parent="1" source="OYP0z0L1LHqat2L6b4ga-3" target="OYP0z0L1LHqat2L6b4ga-6">
          <mxGeometry width="50" height="50" relative="1" as="geometry">
            <mxPoint x="400" y="470" as="sourcePoint" />
            <mxPoint x="450" y="420" as="targetPoint" />
          </mxGeometry>
        </mxCell>
        <mxCell id="OYP0z0L1LHqat2L6b4ga-18" value="&lt;div&gt;Yes&lt;/div&gt;" style="endArrow=classic;html=1;exitX=0.683;exitY=1.017;exitDx=0;exitDy=0;exitPerimeter=0;entryX=0;entryY=0.5;entryDx=0;entryDy=0;" edge="1" parent="1" source="OYP0z0L1LHqat2L6b4ga-3" target="OYP0z0L1LHqat2L6b4ga-5">
          <mxGeometry width="50" height="50" relative="1" as="geometry">
            <mxPoint x="400" y="470" as="sourcePoint" />
            <mxPoint x="450" y="420" as="targetPoint" />
          </mxGeometry>
        </mxCell>
        <mxCell id="OYP0z0L1LHqat2L6b4ga-19" value="Heartbeat Event" style="rounded=0;whiteSpace=wrap;html=1;" vertex="1" parent="1">
          <mxGeometry x="160" y="790" width="120" height="60" as="geometry" />
        </mxCell>
        <mxCell id="OYP0z0L1LHqat2L6b4ga-20" value="Wait For Event" style="endArrow=classic;html=1;exitX=0.5;exitY=1;exitDx=0;exitDy=0;entryX=0.5;entryY=0;entryDx=0;entryDy=0;" edge="1" parent="1" source="OYP0z0L1LHqat2L6b4ga-6" target="OYP0z0L1LHqat2L6b4ga-7">
          <mxGeometry width="50" height="50" relative="1" as="geometry">
            <mxPoint x="400" y="540" as="sourcePoint" />
            <mxPoint x="450" y="490" as="targetPoint" />
          </mxGeometry>
        </mxCell>
        <mxCell id="OYP0z0L1LHqat2L6b4ga-21" value="&lt;div&gt;User Set State Event&lt;/div&gt;" style="endArrow=classic;html=1;exitX=0.5;exitY=1;exitDx=0;exitDy=0;entryX=0.5;entryY=0;entryDx=0;entryDy=0;" edge="1" parent="1" source="OYP0z0L1LHqat2L6b4ga-7" target="OYP0z0L1LHqat2L6b4ga-10">
          <mxGeometry width="50" height="50" relative="1" as="geometry">
            <mxPoint x="400" y="540" as="sourcePoint" />
            <mxPoint x="450" y="490" as="targetPoint" />
          </mxGeometry>
        </mxCell>
        <mxCell id="OYP0z0L1LHqat2L6b4ga-22" value="&lt;div&gt;Scheduled Event&lt;/div&gt;&lt;div&gt;Occurs&lt;br&gt;&lt;/div&gt;" style="endArrow=classic;html=1;exitX=1;exitY=0.5;exitDx=0;exitDy=0;entryX=0.5;entryY=0;entryDx=0;entryDy=0;" edge="1" parent="1" source="OYP0z0L1LHqat2L6b4ga-7" target="OYP0z0L1LHqat2L6b4ga-8">
          <mxGeometry width="50" height="50" relative="1" as="geometry">
            <mxPoint x="400" y="540" as="sourcePoint" />
            <mxPoint x="450" y="490" as="targetPoint" />
          </mxGeometry>
        </mxCell>
        <mxCell id="OYP0z0L1LHqat2L6b4ga-23" value="Heartbeat&lt;br&gt;&lt;div&gt;Timer&lt;/div&gt;&lt;div&gt;Event&lt;br&gt;&lt;/div&gt;" style="endArrow=classic;html=1;exitX=0.25;exitY=1;exitDx=0;exitDy=0;entryX=0.5;entryY=0;entryDx=0;entryDy=0;" edge="1" parent="1" source="OYP0z0L1LHqat2L6b4ga-7" target="OYP0z0L1LHqat2L6b4ga-19">
          <mxGeometry width="50" height="50" relative="1" as="geometry">
            <mxPoint x="400" y="540" as="sourcePoint" />
            <mxPoint x="450" y="490" as="targetPoint" />
          </mxGeometry>
        </mxCell>
        <mxCell id="OYP0z0L1LHqat2L6b4ga-24" value="" style="edgeStyle=segmentEdgeStyle;endArrow=classic;html=1;entryX=0;entryY=0.5;entryDx=0;entryDy=0;exitX=0.25;exitY=0;exitDx=0;exitDy=0;" edge="1" parent="1" source="OYP0z0L1LHqat2L6b4ga-19" target="OYP0z0L1LHqat2L6b4ga-7">
          <mxGeometry width="50" height="50" relative="1" as="geometry">
            <mxPoint x="190" y="600" as="sourcePoint" />
            <mxPoint x="450" y="490" as="targetPoint" />
            <Array as="points">
              <mxPoint x="190" y="680" />
            </Array>
          </mxGeometry>
        </mxCell>
        <mxCell id="OYP0z0L1LHqat2L6b4ga-26" value="Pi Disconnects" style="endArrow=classic;html=1;entryX=1;entryY=0.5;entryDx=0;entryDy=0;exitX=0;exitY=0.25;exitDx=0;exitDy=0;" edge="1" parent="1" source="OYP0z0L1LHqat2L6b4ga-7" target="OYP0z0L1LHqat2L6b4ga-9">
          <mxGeometry width="50" height="50" relative="1" as="geometry">
            <mxPoint x="400" y="540" as="sourcePoint" />
            <mxPoint x="450" y="490" as="targetPoint" />
          </mxGeometry>
        </mxCell>
        <mxCell id="OYP0z0L1LHqat2L6b4ga-27" value="" style="edgeStyle=segmentEdgeStyle;endArrow=classic;html=1;entryX=0;entryY=0.5;entryDx=0;entryDy=0;exitX=0.5;exitY=0;exitDx=0;exitDy=0;" edge="1" parent="1" source="OYP0z0L1LHqat2L6b4ga-9" target="OYP0z0L1LHqat2L6b4ga-1">
          <mxGeometry width="50" height="50" relative="1" as="geometry">
            <mxPoint x="400" y="450" as="sourcePoint" />
            <mxPoint x="450" y="400" as="targetPoint" />
            <Array as="points">
              <mxPoint x="110" y="100" />
            </Array>
          </mxGeometry>
        </mxCell>
        <mxCell id="OYP0z0L1LHqat2L6b4ga-28" value="" style="endArrow=classic;html=1;entryX=1;entryY=0.5;entryDx=0;entryDy=0;exitX=0.5;exitY=1;exitDx=0;exitDy=0;" edge="1" parent="1" source="OYP0z0L1LHqat2L6b4ga-5" target="OYP0z0L1LHqat2L6b4ga-6">
          <mxGeometry width="50" height="50" relative="1" as="geometry">
            <mxPoint x="400" y="560" as="sourcePoint" />
            <mxPoint x="450" y="510" as="targetPoint" />
          </mxGeometry>
        </mxCell>
        <mxCell id="OYP0z0L1LHqat2L6b4ga-30" value="" style="endArrow=classic;html=1;exitX=0.75;exitY=0;exitDx=0;exitDy=0;entryX=0.75;entryY=1;entryDx=0;entryDy=0;" edge="1" parent="1" source="OYP0z0L1LHqat2L6b4ga-8" target="OYP0z0L1LHqat2L6b4ga-5">
          <mxGeometry width="50" height="50" relative="1" as="geometry">
            <mxPoint x="400" y="590" as="sourcePoint" />
            <mxPoint x="450" y="540" as="targetPoint" />
          </mxGeometry>
        </mxCell>
        <mxCell id="OYP0z0L1LHqat2L6b4ga-31" value="" style="edgeStyle=segmentEdgeStyle;endArrow=classic;html=1;exitX=0.5;exitY=1;exitDx=0;exitDy=0;entryX=1;entryY=0.5;entryDx=0;entryDy=0;" edge="1" parent="1" source="OYP0z0L1LHqat2L6b4ga-10" target="OYP0z0L1LHqat2L6b4ga-5">
          <mxGeometry width="50" height="50" relative="1" as="geometry">
            <mxPoint x="400" y="590" as="sourcePoint" />
            <mxPoint x="450" y="540" as="targetPoint" />
            <Array as="points">
              <mxPoint x="390" y="880" />
              <mxPoint x="660" y="880" />
              <mxPoint x="660" y="480" />
            </Array>
          </mxGeometry>
        </mxCell>
      </root>
    </mxGraphModel>
  </diagram>
</mxfile>
